<svg xmlns="http://www.w3.org/2000/svg" version="1.0" viewBox="0 0 4270 4260"><defs/><g fill="#5f4594"><path d="M1886 4219c-539-70-1050-362-1398-798-71-89-141-191-136-197 3-2 500-3 1106-2l1101 3-288 500c-159 275-295 501-302 501-8 1-45-2-83-7zM2172 4211c10-27 1092-1891 1097-1891 3 0 136 225 294 500l288 500-61 81c-283 371-721 656-1175 762-179 43-453 72-443 48zM3416 2175c-300-519-546-947-546-950s264-4 587-3l588 3 38 90c218 509 200 1159-48 1683-32 67-61 122-65 122s-253-425-554-945zM188 2913C85 2651 43 2454 33 2190c-12-353 55-675 202-979l61-124 554 962c305 530 556 967 558 972s-248 9-585 9H234l-46-117zM1930 2684c-90-16-158-38-255-86-140-69-285-188-272-222 11-28 47-17 105 32 75 64 104 84 191 127 212 107 490 136 731 76 126-31 288-116 385-201 44-38 83-70 88-70 47-1-114 154-232 223-92 55-216 101-329 123-89 17-303 16-412-2zM2652 2167c-91-136-126-216-120-277 7-67 41-115 106-147 43-21 61-25 99-19 140 19 199 158 129 301-25 50-122 202-145 227-4 4-35-34-69-85zm125-166c17-11 34-29 38-40 3-12 11-19 16-16 15 10 10-27-10-71-24-52-55-74-106-74-50 0-83 22-101 66-42 101 68 192 163 135zM1521 2166c-71-103-121-211-121-261 0-48 40-120 67-120 10 0 17-6 15-12-1-7 7-13 18-13s20-5 20-11 22-9 55-8c73 3 126 35 154 92 26 53 26 92 2 156-16 44-144 251-155 251-2 0-27-33-55-74zm125-180c24-24 34-43 34-65 0-45-24-86-57-99-47-18-83-23-83-12 0 5-11 12-25 16-14 3-22 10-19 15s-1 12-9 14c-23 10-21 87 4 119 44 56 106 61 155 12zM717 1444L419 929l67-87c37-48 119-139 183-203 327-326 733-529 1193-594 96-14 268-20 268-11 0 8-1092 1900-1104 1913-9 10-83-112-309-503zM1779 968c26-46 160-276 296-513s249-432 251-434c3-3 59 4 125 13 592 88 1105 411 1433 903 36 55 66 103 66 106 0 4-499 7-1110 7H1730l49-82z"/></g><g fill="#ec4c4c"><path d="M1886 4219c-539-70-1050-362-1398-798-71-89-141-191-136-197 3-2 500-3 1106-2l1101 3-288 500c-159 275-295 501-302 501-8 1-45-2-83-7zM2172 4211c10-27 1092-1891 1097-1891 3 0 136 225 294 500l288 500-61 81c-283 371-721 656-1175 762-179 43-453 72-443 48zM3416 2175c-300-519-546-947-546-950s264-4 587-3l588 3 38 90c218 509 200 1159-48 1683-32 67-61 122-65 122s-253-425-554-945zM188 2913C85 2651 43 2454 33 2190c-12-353 55-675 202-979l61-124 554 962c305 530 556 967 558 972s-248 9-585 9H234l-46-117zM717 1444L419 929l67-87c37-48 119-139 183-203 327-326 733-529 1193-594 96-14 268-20 268-11 0 8-1092 1900-1104 1913-9 10-83-112-309-503zM1779 968c26-46 160-276 296-513s249-432 251-434c3-3 59 4 125 13 592 88 1105 411 1433 903 36 55 66 103 66 106 0 4-499 7-1110 7H1730l49-82z"/></g><g fill="#74d14c"><path d="M1886 4219c-539-70-1050-362-1398-798-71-89-141-191-136-197 3-2 500-3 1106-2l1101 3-288 500c-159 275-295 501-302 501-8 1-45-2-83-7zM2172 4211c10-27 1092-1891 1097-1891 3 0 136 225 294 500l288 500-61 81c-283 371-721 656-1175 762-179 43-453 72-443 48zM188 2913C85 2651 43 2454 33 2190c-12-353 55-675 202-979l61-124 554 962c305 530 556 967 558 972s-248 9-585 9H234l-46-117zM717 1444L419 929l67-87c37-48 119-139 183-203 327-326 733-529 1193-594 96-14 268-20 268-11 0 8-1092 1900-1104 1913-9 10-83-112-309-503zM1779 968c26-46 160-276 296-513s249-432 251-434c3-3 59 4 125 13 592 88 1105 411 1433 903 36 55 66 103 66 106 0 4-499 7-1110 7H1730l49-82z"/></g><g fill="#4c96d7"><path d="M1886 4219c-539-70-1050-362-1398-798-71-89-141-191-136-197 3-2 500-3 1106-2l1101 3-288 500c-159 275-295 501-302 501-8 1-45-2-83-7zM2172 4211c10-27 1092-1891 1097-1891 3 0 136 225 294 500l288 500-61 81c-283 371-721 656-1175 762-179 43-453 72-443 48zM188 2913C85 2651 43 2454 33 2190c-12-353 55-675 202-979l61-124 554 962c305 530 556 967 558 972s-248 9-585 9H234l-46-117zM1779 968c26-46 160-276 296-513s249-432 251-434c3-3 59 4 125 13 592 88 1105 411 1433 903 36 55 66 103 66 106 0 4-499 7-1110 7H1730l49-82z"/></g><g fill="#a45ec0"><path d="M1886 4219c-539-70-1050-362-1398-798-71-89-141-191-136-197 3-2 500-3 1106-2l1101 3-288 500c-159 275-295 501-302 501-8 1-45-2-83-7zM2172 4211c10-27 1092-1891 1097-1891 3 0 136 225 294 500l288 500-61 81c-283 371-721 656-1175 762-179 43-453 72-443 48zM1779 968c26-46 160-276 296-513s249-432 251-434c3-3 59 4 125 13 592 88 1105 411 1433 903 36 55 66 103 66 106 0 4-499 7-1110 7H1730l49-82z"/></g><g fill="#d65ab1"><path d="M2172 4211c10-27 1092-1891 1097-1891 3 0 136 225 294 500l288 500-61 81c-283 371-721 656-1175 762-179 43-453 72-443 48zM1779 968c26-46 160-276 296-513s249-432 251-434c3-3 59 4 125 13 592 88 1105 411 1433 903 36 55 66 103 66 106 0 4-499 7-1110 7H1730l49-82z"/></g><path fill="#f2af58" d="M1779 968c26-46 160-276 296-513s249-432 251-434c3-3 59 4 125 13 592 88 1105 411 1433 903 36 55 66 103 66 106 0 4-499 7-1110 7H1730l49-82z"/></svg>