<svg xmlns="http://www.w3.org/2000/svg" version="1.0" viewBox="0 0 6250 1170"><defs/><g fill="#3a3a3a"><path d="M2299 1129c-165-21-258-114-278-279-17-135 20-250 111-346 86-91 170-124 314-124 121 0 204 25 268 81 59 52 83 100 98 193 21 139-14 256-107 352-100 102-238 144-406 123zm239-136c55-41 67-77 67-203 0-160-31-245-100-280-38-19-155-18-210 2-34 13-41 21-52 58-19 66-26 179-14 249 24 148 87 206 214 198 48-3 77-11 95-24zM3889 1129c-130-14-225-80-265-185-15-37-19-75-19-159 0-98 3-116 27-167 50-107 147-191 259-224 76-23 244-15 320 14 121 48 189 162 189 319 0 259-223 435-511 402zm227-132c54-28 69-74 69-217 0-119-1-128-30-185-42-83-69-100-159-100-43 1-90 8-117 18-42 16-46 21-57 65-20 84-24 158-13 233 24 155 85 214 211 206 36-2 79-11 96-20zM1714 1120c-81-25-96-89-69-285 9-66 18-154 22-195 5-68 3-77-16-94-30-27-90-24-144 8-72 42-178 177-218 277-21 53-21 55-4 158 9 57 13 107 8 112-15 15-117 22-160 10-32-9-47-20-59-43-18-36-18-54 12-338 15-144 16-189 6-350-7-102-17-215-23-253-7-37-9-70-6-73 3-4 34-8 69-11 83-7 131 13 155 62 16 32 16 48 4 188-31 359-31 404 2 340 25-47 169-177 228-207 96-47 213-52 274-12 53 35 59 65 49 268-10 197-5 291 22 370 9 28 12 54 8 58-14 13-126 20-160 10zM3240 1119c-66-11-136-52-167-98-47-69-49-104-27-423l7-88h-29c-16 0-46 5-68 11-44 12-56 3-56-41 1-50 44-80 114-80h46v-58c0-32-6-81-14-110-9-35-10-55-3-59 6-3 42-8 81-11 62-4 75-1 98 17 36 29 47 72 40 159l-5 72h49c27-1 83-7 124-14 41-8 78-11 81-7 4 3 10 20 13 37 16 73-69 114-198 94-43-6-79-10-82-8-14 14-35 206-32 294 3 110 13 134 70 177 33 24 114 26 175 4 47-18 53-13 53 47 0 45-28 67-103 83-70 14-89 14-167 2zM4675 1121c-68-17-100-53-106-116-1-17 1-113 5-215 6-155 5-198-9-265-26-125-28-118 37-128 72-10 130 5 157 40 26 32 28 137 6 288-8 55-15 128-15 162 0 55 3 64 26 82 35 27 58 26 108-3 69-41 173-182 206-280 17-50 15-135-5-243-6-35-3-37 76-48 64-9 130 20 149 65 11 28 11 53-3 174-20 167-21 283-3 386 8 41 10 79 6 84-5 5-43 9-85 10-73 1-78 0-102-29-25-28-25-33-20-127 3-54 3-98 1-98s-11 14-19 30c-31 59-142 165-207 198-67 33-150 47-203 33zM146 1110c-35-11-75-47-87-79-6-16-2-90 12-220 22-202 21-368-1-521-6-36-13-84-16-106l-6-41 68-17c370-89 735-11 795 171 16 49 7 170-16 218-28 58-121 147-187 178-115 53-275 62-323 17-24-23-33-64-17-85 4-5 45-10 92-11 113-1 160-22 210-94 21-30 25-46 25-111 0-68-3-79-29-113-33-44-89-72-163-82-67-8-179 4-197 21-31 32-29 647 4 815 5 25 5 48 1 53-12 12-133 17-165 7zM5577 1108c-69-19-73-36-54-217 22-195 21-282-1-393-20-98-24-91 55-103 78-12 150 30 154 90 1 17-1 62-6 100l-7 70 39-60c48-73 143-162 201-187 54-24 137-26 179-5 40 21 67 78 60 130-10 74-79 118-161 103-29-6-33-10-28-32 6-32-23-64-57-64-28 0-65 21-94 55-27 30-93 164-117 236-23 67-22 133 1 223 6 22 7 42 2 47-14 14-125 19-166 7z"/></g></svg>