<svg xmlns="http://www.w3.org/2000/svg" width="116" height="20" fill="#fff"><path d="M53.3 11a3.18 3.18 0 1 1 .93 2.27A3.2 3.2 0 0 1 53.3 11m.2-10l-1.83 2H48.5a2 2 0 0 0-2 2v12a2 2 0 0 0 2 2h16a2 2 0 0 0 2-2V5a2 2 0 0 0-2-2h-3.17L59.5 1zm3 15a5 5 0 1 1 0-10 5 5 0 1 1 0 10zm-20.75-5.42h-3.43V14h-1.15v-3.42h-3.42V9.43h3.42V6h1.15v3.43h3.43zM7 0a7 7 0 0 0-7 7c0 5.25 7 13 7 13s7-7.75 7-13a7 7 0 0 0-7-7zm0 9.5a2.5 2.5 0 1 1 0-5 2.5 2.5 0 1 1 0 5zM104 2h-6a2 2 0 0 0-2 2v12a2 2 0 0 0 2 2h16a2 2 0 0 0 2-2V6a2 2 0 0 0-2-2h-8zm-18.75 8.58h-3.43V14h-1.15v-3.42h-3.42V9.43h3.42V6h1.15v3.43h3.43z"/></svg>