<svg xmlns="http://www.w3.org/2000/svg" viewBox="0 0 511.8 426.66"><path d="M255.5 96c15.4-.37 9.94-23.92 10.45-34.15-21.8-34.5-30.85 36.88-10.45 34.15zm-86.76-11.62c-30.2-20.33-17.75 25.3-2.84 33.6 27.2 5.1 8.3-26.17 2.84-33.6zm-55.7 77.04c-31.08-22.57-38.06-6.47-32.33 5 38.1 32.55 43.24.83 32.33-5zm314.08 181.34c-31.08-22.58-38.06-6.45-32.32 5 38.1 32.54 43.23.82 32.32-5zM95.5 256c-.37-15.4-23.92-9.95-34.16-10.45-34.5 21.8 36.9 30.84 34.16 10.45zm320 0c.36 15.4 23.9 9.94 34.15 10.45 34.5-21.8-36.92-30.85-34.15-10.45zm-313.13 76.1c-15.82 7-37.52 23-13.13 30.58 48.88-16.77 23.73-37.13 13.13-30.58zm314.08-181.34c-15.82 7-37.5 22.95-13.13 30.57 48.94-16.8 23.67-37.17 13.13-30.57zm-59.6-70.28c-13.52-7.42-20.57 15.75-26.13 24.35.9 40.52 45.38-16 26.13-24.35zm-90.7 57.25c-14.76-27.1-24.76 7.42-22.14 10.2l-18 205.43c-27.64 27.4-8.3 71.14 27.22 73.23 41.28 2 58.9-47.7 31.9-73.23zM255.5 0C130.78 0 25.97 90.1 3.87 208.76c-13.14 45.3 7.5 213.15 56.8 165.46 18.07-7.42 2.48-22.67-1.76-35.36-59.6-143 45.7-295.62 196.6-296.2 158.28.87 257 163.16 194.17 301.76-8.1 15.58-13.45 24.08 3.22 31.2 19.9 12.54 24.2 11.36 33-8C568.68 194.7 442.56.86 255.5 0z"/></svg>