<svg viewBox="0 0 1196 1004"
  xmlns="http://www.w3.org/2000/svg">
  <path
    d="M296.6 160s106-162 301-157c4 .1-194 337-194 337"
    fill="#74d14c" />
  <path
    d="M527.6 182l105-182s179 6 286 180"
    fill="#f2af58" />
  <path
    d="M798.6 405l102 177s-97 156-295 157"
    fill="#d65ab1" />
  <path
    d="M284.6 565s87 158 285 176c5 .5 104-176 104-176z"
    fill="#a45ec0" />
  <path
    d="M728.6 212l207 1s83 159-14 333"
    fill="#ec4c4c" />
  <path
    d="M471.6 530l-207-.4s-87-162.6 11-341.6"
    fill="#4c96d7" />
  <path
    d="M562.6 469.5c-15.8-2.8-27.8-6.7-45-15-24.7-12.2-50.2-33-48-39s8.3-3 18.5 5.6a129 129 0 0 0 33.6 22.4 194 194 0 0 0 128.8 13.4 180 180 0 0 0 66.9-35.7c7.7-6.7 16-14 16.4-12 8.6 2-18.6 28-39.4 40-16.2 9.7-39.5 17-59.4 21a285 285 0 0 1-72.6-.4zm127.2-91c-16-24-22.2-38-21-48.8a32 32 0 0 1 18.6-25.9c7.6-3.7 10.8-4.4 17.5-3.4 24.6 3.4 35 28 22.7 53-4.4 9-21.5 35.6-25.5 40-.8.7-6.2-6-12.2-15zm-207-71.3c1-.5 11.4-4 17.2-3.8 12.8.5 22.2 6.2 27 16.2s4.6 16.2.4 27.5c-3 7.8-25.4 44.2-27.3 44.2-.4 0-4.8-5.8-9.7-13-12.5-18.2-21.3-37.2-21.3-46s7.8-22.3 13.6-25"
    fill="#5f4594" />
  <g fill="#fff">
    <circle
      cx="500.6"
      cy="335"
      r="18" />
    <circle
      cx="700.6"
      cy="333"
      r="19" />
  </g>
  <path
    d="M438 1000.4c-44-5.6-63.6-50.6-51-90.3 13.5-42.4 60.4-64 102.7-53 39 10.2 57.2 48.7 46.4 86.7-12 42-57.2 62-98.2 56.7zm46.5-26.4c35.8-26.7 8-126.4-47.3-93.7-38 22.4-5.4 131.7 47.3 93.7zm263 26.4c-44-4.7-65-49.5-53.6-89.7 12-42.8 60.4-63.7 102-53.7s61 51.2 46.7 90.8-56 57.2-95 52.6zm44.2-25.7c52.8-27.3-13-136.6-54.4-83.7-27 34.3 7.2 109.2 54.4 83.7zm-467.6 24c-37-11.5 16.3-152.5-48.7-102.8-13.6 10.4-30.4 30.4-34.4 47-3.6 14.6 6.2 29 3 42.5-4 16.6-16.6 19.6-31.7 11s-17.2-24.2-17-40.3c.4-34 10.3-64.4 6-99-2.3-17.4-15.7-63 8-70 62-18.5 29.6 119.2 34.2 113.8 18-21 10-13 44-37.4 20.6-14.7 54-12.4 63.7 14.7 9.2 25.4-3.6 57-2 83.3 1.6 23.3 9 47.2-25.3 37zm297-.2c-56.4-9.4-39.7-79-36.4-118.6-10.5.2-29.6 7.2-31-7-1.5-16 26-14 31.3-22.3 9-13.7-10.3-38 15-41.7 29.3-4.3 26 35.2 24.5 51.7 14 .3 56.8-10.3 51 11-6.5 23.3-36 2-48 7s-10.5 23.6-11 36c-.6 14.4-4 34.6 4.7 47.3 11.2 16.3 25 9 40.6 12.5 12 2.7 21.5 5.7 5.7 20.2-10.2 9.5-33.7 6-46.2 4.2zm279.3.4c-35.5-9-18-62.2-19.4-87-.7-13-10-35.6-1.8-47.5a22 22 0 0 1 33.2-4c18.3 16.5 4 56 4.2 77 .1 60.2 50 18.4 61.5-15.3 7-20-12.2-88.3 34-61.8 22 12.7 12.4 63.2 12.4 87 0 14.3 3.4 69.4-28.4 54.4-10-4.7-16-53.6-12.2-53.6-7.3 0-21.2 26.2-26.6 31.4-14.6 14-36.5 24.3-57 19.4zm-881.5-2.2c-24.2-7.6-17-35.5-15-54.3 3.3-31 5.6-63.5 1.4-94.6C2.8 830-7 816.5 8.6 805c11-8.2 36.8-6 50-6.6 33-1.2 85-.7 104.3 32.6 23 40-19.8 88.5-59.5 95-13 2-52 10-39.3-18.8 5.3-12 31.3-4 44.3-16 34-64-12-66-43-65-42-1-22.3 72-19.8 100.8 2.4 26 19.8 84.5-26.8 70zm1057-.4c-22.3-6-11.7-94.3-10.8-112.3 1-15.6.8-31.5 20-29 26.7 3.5 20 35.8 18.2 53 14-22.7 51.2-72.4 83-46.6 9.7 7.8 12.7 19 4.8 29.7-10.5 14.2-22.7 7.5-34.2 3.2-8-3-2-10.3-16.7-6.6-6 1.5-12.8 12.6-16 17.2a100 100 0 0 0-17.4 47.4c-2 23 6.7 58-31 43.8z"
    fill="#3a3a3a" />
</svg>
