<svg viewBox="0 0 283.2 283.7"><path fill="#74d14c" d="M26 61.3S66.5-.7 141 1.2c1.5 0-74.3 129-74.3 129"/><path fill="#f2af58" d="M114.3 69.7L154.5 0S223 2.3 264 69"/><path fill="#d65ab1" d="M218 155l39 67.8s-37 59.7-113 60"/><path fill="#a45ec0" d="M21.3 216.3s33.3 60.5 109 67.4c2 .2 39.8-67.4 39.8-67.4z"/><path fill="#ec4c4c" d="M191.3 81.2l79.3.4s31.8 61-5.4 127.5"/><path fill="#4c96d7" d="M93 203l-79.3-.1S-19.7 140.5 17.8 72"/><path fill="#5f4594" d="M127.7 179.8c-8.7.4-43.4-19-34-22a72 72 0 0 0 99.4-1.2c-5 18.3-45 27.8-65.6 23.2zm48.7-34.8c-30-43 41.8-37.6 6 4-2 3-1.3 2-6-4zm-79.3-27.3c34-8 8.7 36 5.5 31.2-7-10.3-16.2-22.2-5.5-31.2"/><path fill="#fff" d="M104 121.4a7 7 0 0 1 0 13.8 7 7 0 0 1 0-13.8zm76.6-1.2c8.3 0 10 13.6 0 14.5-8.3 0-10.2-13.6 0-14.5z"/></svg>
