<svg viewBox="0 0 438 408.7"><defs/><path fill="#74d14c" d="M100.94 61.26s40.6-62 115.25-60.1c1.54 0-74.28 129-74.28 129"/><path fill="#f2af58" d="M189.4 69.7L229.6 0s68.54 2.3 109.5 68.92"/><path fill="#d65ab1" d="M293.16 155.08l39 67.77s-37.1 59.73-112.9 60.15"/><path fill="#a45ec0" d="M96.35 216.34s33.3 60.5 109.12 67.4c1.92.2 39.83-67.4 39.83-67.4z"/><path fill="#ec4c4c" d="M266.35 81.18l79.27.38s31.78 60.88-5.36 127.5"/><path fill="#4c96d7" d="M167.95 202.94l-79.26-.15S55.38 140.53 92.9 72"/><path fill="#5f4594" d="M202.8 179.77c-8.7.4-43.4-18.88-33.87-21.86 35.88 27.83 71.05 23.4 99.43-1.23-4.92 18.33-45 27.84-65.63 23.2zm48.68-34.84c-30-42.94 41.84-37.6 6 4-1.88 3.1-1.27 2-5.94-4.07zm-79.26-27.3c34.13-8.1 8.7 36 5.5 31.22-6.9-10.3-16.18-22.2-5.53-31.18"/><path fill="#fff" d="M179.05 121.38c7.9 0 9.62 12.85 0 13.78-7.9-.02-9.58-12.84 0-13.78zm76.58-1.15c8.34 0 10.15 13.56 0 14.55-8.33-.03-10.16-13.56 0-14.55z"/><path fill="#3a3a3a" d="M0 324.8c83.5-16 70.5 60.28 18.57 52.15v29.64H0zm18.57 37.64c30.13 5.5 29.67-31.7 0-24.48zm52.27-43.2h18.7v34.32h.25c42.14-31.68 39.22 29 38.13 53h-18.7c.1-13 4.3-65.7-19.07-39.85-1.23.7-.37 38.45-.6 39.85h-18.7zm131.5 56.58c.27 43.4-63.53 41.8-62.85 1.1-.27-43.03 63.48-41.6 62.85-1.1zm-43.54.62c-.43 22.76 22.63 24.2 24.13 2.63 2.37-27.8-25-26.24-24.13-2.63zm76-47.23v17.22h13.4v13.77h-13.4c1.46 12.4-6.1 37.1 12.92 31.86l.12 14.14c-38.7 9.2-30.5-22.65-31.37-46h-8v-13.77h8v-13zm83.03 46.6c.27 43.4-63.53 41.8-62.86 1.1-.26-43.03 63.5-41.6 62.86-1.1zm-43.55.62c-.43 22.76 22.63 24.2 24.14 2.63 2.36-27.8-24.95-26.24-24.14-2.63zm111.82 10.82a379.5 379.5 0 0 0 .5 19.3h-16.23l-.88-8.48h-.37c-42.94 35-41.54-25.66-40-51.66h18.82c-.1 12.9-4.15 65.65 18.7 39.85 1.24-.4.37-38.63.6-39.85h18.82zm15-21.03a373.5 373.5 0 0 0-.5-19.8h16.12l.6 11.07h.5c3.94-9.7 11.73-13.55 20.17-12.18v17.6c-26.1-5.93-16.58 30-18.2 43.66h-18.7z"/></svg>