<svg viewBox="0 0 780.9 283.7"><defs/><path fill="#74d14c" d="M25.88 61.26s40.6-62 115.25-60.1c1.54 0-74.28 129-74.28 129"/><path fill="#f2af58" d="M114.33 69.68L154.54 0s68.54 2.3 109.5 68.92"/><path fill="#d65ab1" d="M218.1 155.07l39.05 67.78s-37.14 59.73-113 60.1"/><path fill="#a45ec0" d="M21.3 216.34s33.3 60.5 109.12 67.4c1.92.2 39.83-67.4 39.83-67.4z"/><path fill="#ec4c4c" d="M191.3 81.17l79.27.38s31.78 60.9-5.36 127.5"/><path fill="#4c96d7" d="M92.9 202.94l-79.26-.16s-33.3-62.26 4.2-130.8"/><path fill="#5f4594" d="M127.73 179.77c-8.7.4-43.4-18.88-33.87-21.86 35.88 27.83 71.05 23.4 99.43-1.23-4.92 18.32-45 27.84-65.63 23.2zm48.68-34.84c-30-42.94 41.84-37.6 6 4-1.88 3.08-1.27 2-5.94-4.07zm-79.26-27.3c34.13-8.1 8.7 36 5.5 31.22-6.9-10.3-16.18-22.2-5.53-31.18"/><path fill="#fff" d="M104 121.38c7.9 0 9.62 12.84 0 13.78-7.9-.03-9.58-12.85 0-13.78zm76.57-1.15c8.34 0 10.15 13.56 0 14.55-8.33-.03-10.16-13.56 0-14.55z"/><path fill="#3a3a3a" d="M342.94 102.67c83.5-16 70.5 60.28 18.57 52.15v29.62h-18.57zm18.57 37.64c30.13 5.5 29.67-31.7 0-24.48zm52.27-43.17h18.7v34.3h.25c42.14-31.68 39.22 29 38.13 53h-18.7c.1-13 4.3-65.7-19.07-39.86-1.23.7-.37 38.45-.6 39.86h-18.7zm131.5 56.58c.27 43.4-63.53 41.8-62.85 1.1-.27-43.02 63.48-41.6 62.85-1.1zm-43.54.6c-.43 22.77 22.63 24.2 24.13 2.63 2.37-27.78-25-26.24-24.13-2.63zm76-47.22v17.22h13.4v13.78h-13.4c1.46 12.4-6.1 37.1 12.92 31.85l.12 14.15c-38.7 9.2-30.5-22.66-31.37-46h-8v-13.78h8v-13zm83.03 46.62c.27 43.4-63.53 41.8-62.86 1.1-.26-43.02 63.5-41.6 62.86-1.1zm-43.55.6c-.43 22.76 22.63 24.2 24.14 2.63 2.36-27.8-24.95-26.24-24.14-2.63zm111.8 10.84a394.6 394.6 0 0 0 .49 19.31H713.3l-.86-8.5h-.37c-42.94 35-41.54-25.66-40-51.66h18.82c-.1 12.9-4.15 65.65 18.7 39.85 1.24-.4.37-38.63.6-39.85H729zm15-21.04a374.1 374.1 0 0 0-.5-19.8h16.12l.6 11.07h.5c3.94-9.7 11.73-13.54 20.17-12.18v17.6c-26.1-5.93-16.58 30-18.2 43.67h-18.7z"/></svg>