<svg xmlns="http://www.w3.org/2000/svg" fill="#010101" viewBox="0 0 499.88 310.19"><path d="M188.52 94.25C188.52 40.9 143.77-2.4 89.87.1c-58.35 2.43-100.4 58-87.54 114.92C-.33 120.78 90 299.23 94.27 310.2l84.18-173.6a93.4 93.4 0 0 0 10.07-42.34zM94.27 146.4c-70.32-3.5-68.14-101.82 0-104.3 70.28 3.5 68.14 101.82 0 104.3zM442.57 2.68c-38.3-.1-65.48 37.1-55 73.23-1.88 0 53.6 111.55 55 115.16 2.73-6.86 58-116.1 56-119 7.93-35.9-20.2-69.48-56-69.4zm0 88.9c-43-2.26-41-62 0-63.35 43 2.26 41 62.02 0 63.35zm-192.4 70.62l-9.78-.17-46.87 97.17-60.88-1.34-25.38 52.35 119.15-2.6 35.4-114 169.5-3-12.38-25.44z"/></svg>