<svg viewBox="0 0 1196 219"
  xmlns="http://www.w3.org/2000/svg">
  <path
    d="M438 215c-44.2-5.6-63.6-50.6-51-90.3 13.5-42.4 60.3-64 102.7-53 39 10.2 57.2 48.7 46.3 86.7-12 42-57 62-98 56.7zm46.5-26.4c35.8-26.7 8-126.4-47.3-93.7-38 22.4-5.4 131.7 47.3 93.7zm263 26.4c-44.2-4.7-65-49.5-53.6-89.7 12-42.8 60.4-63.7 102-53.7s61 51.2 46.8 90.8-56 57.2-95 52.6zm44.2-25.7c52.7-27.3-13-136.6-54.4-83.7-27 34.3 7 109.2 54.4 83.7zm-467.6 24c-37.2-11.5 16.3-152.5-48.7-102.8-13.6 10.4-30.4 30.4-34.5 47-3.5 14.6 6.3 29 3 42.5-3.8 16.6-16.5 19.6-31.6 11s-17.2-24.2-17-40.3c.4-34 10.3-64.4 6-99-2.3-17.4-15.7-63 8-70 62-18.5 29.6 119.2 34.2 113.8 18-21 10-13 44-37.4C308 63.5 341.3 65.8 351.2 93c9.2 25.4-3.6 57-2 83.3 1.6 23.3 9 47.2-25.3 37zm297-.2c-56.4-9.4-39.7-79-36.4-118.6-10.5.2-29.7 7.2-31-7-1.5-16 26-14 31.3-22.3 9-13.7-10.3-38 14.8-41.7 29.3-4.3 26 35.2 24.6 51.7 14 .3 56.8-10.3 51 11-6.5 23.3-36 2-48 7s-10.4 23.6-11 36c-.6 14.4-4 34.6 4.7 47.3 11.2 16.3 25 9 40.6 12.5 12 2.7 21.5 5.7 5.7 20.2-10.3 9.5-33.7 6-46.2 4.2zm279.3.4c-35.5-9-18-62.2-19.4-87-.7-13-10-35.6-2-47.5s23.8-12.5 33.3-4c18.3 16.5 4 56 4 77 .2 60.2 50 18.4 61.6-15.3 7-20-12.2-88.3 34-61.8 22 12.7 12.3 63.2 12.4 87 0 14.3 3.4 69.4-28.4 54.4-10-4.7-16-53.6-12.2-53.6-7.3 0-21.2 26.2-26.7 31.4-14.6 14-36.4 24.3-56.8 19.4zm-881.5-2.2c-24.2-7.6-17-35.5-15-54.3C7 126 9.4 93.5 5.2 62.4 2.8 44.6-7 31 8.6 19.6c11-8.2 36.7-6 50-6.6 33-1.2 85-.7 104.2 32.6 23 40-19.7 88.5-59.5 95-13 2-52 10-39.2-18.8 5.3-12 31.3-4 44.3-16 34-64-12-66-43-65-42-1-22.4 72-19.8 100.8 2.3 26 19.7 84.5-26.8 70zm1057-.4c-22.3-6-11.7-94.3-10.8-112.3.8-15.6.8-31.5 20-29 26.7 3.5 20 35.8 18.2 53 14-22.7 51.2-72.4 83-46.6 9.7 7.8 12.6 19 4.8 29.7-10.5 14.2-22.7 7.5-34.3 3.2-7.8-3-2-10.3-16.6-6.6-6 1.5-12.8 12.6-16 17.2a99.9 99.9 0 0 0-17.3 47.4c-2 23 6.7 58-31 43.8z"
    fill="#3a3a3a" />
</svg>
