<svg fill="#3a3a3a" viewBox="0 0 438 89.5"><defs/><path d="M0 5.54c83.5-16 70.5 60.28 18.57 52.15v29.64H0zm18.57 37.64c30.13 5.5 29.67-31.7 0-24.48zM70.84 0h18.7v34.32h.25c42.14-31.68 39.22 29 38.13 53h-18.7c.1-13 4.3-65.7-19.07-39.85-1.23.7-.37 38.45-.6 39.85h-18.7zm131.5 56.58c.27 43.4-63.53 41.8-62.85 1.1-.27-43.03 63.48-41.6 62.85-1.1zm-43.54.62c-.43 22.76 22.63 24.2 24.13 2.63 2.37-27.8-25-26.24-24.13-2.63zm76-47.23V27.2h13.4v13.77h-13.4c1.46 12.4-6.1 37.1 12.92 31.86l.12 14.14c-38.7 9.2-30.5-22.65-31.37-46h-8V27.2h8v-13zm83.03 46.6c.27 43.4-63.53 41.8-62.86 1.1-.26-43.03 63.5-41.6 62.86-1.1zm-43.55.62c-.43 22.76 22.63 24.2 24.14 2.63 2.36-27.8-24.95-26.24-24.14-2.63zM386.1 68.02a379.5 379.5 0 0 0 .5 19.3h-16.23l-.88-8.48h-.37c-42.94 35-41.54-25.66-40-51.66h18.82c-.1 12.9-4.15 65.65 18.7 39.85 1.24-.4.37-38.63.6-39.85h18.82zm15-21.02a373.5 373.5 0 0 0-.5-19.8h16.12l.6 11.07h.5c3.94-9.7 11.73-13.55 20.17-12.18v17.6c-26.1-5.93-16.58 30-18.2 43.66h-18.7z"/></svg>