<svg xmlns="http://www.w3.org/2000/svg" viewBox="0 0 350.7 511.6"><path d="M197.63 290.63V158.56c-.25-9.38-14.42-10.15-15.2 0v135.9a7.6 7.6 0 0 0 3.19 6.19c85.53 63.83 41.63 192.23-60.1 195.73-109.7.1-148.5-135.22-64.9-195.73a7.6 7.6 0 0 0 3.19-6.19V74.12c4.52-81 116.3-76.23 118.62 0v54c.25 9.4 14.43 10.15 15.2 0v-54c-5.4-101.3-145.9-96.4-149 0v216.5c-93.56 74.45-42.5 217.33 72.1 221 122.64-.08 168.54-150.1 76.9-221zm-74.5 165.23a66.7 66.7 0 0 1-38.53-12.16 7.6 7.6 0 1 0-8.76 12.42c95 59.42 179.58-70.6 95.06-134.84l-13.83-9.85V74.12c-3-47.1-66.88-42.8-67.93 0v237.34l-13.83 9.85c-35.58 24.4-45.83 77.4-20.6 113.36 5.47 7.63 17.64.33 12.6-8.52-20.1-28.28-12.73-72.43 16.82-92.46l17-12.12a7.6 7.6 0 0 0 3.2-6.2V286h37.5v29.36c0 2.46 1.2 4.77 3.2 6.2l17 12.12c54.4 40.88 24.68 121.43-38.9 122.17zM141.9 154.6h-37.54v-42.9h37.5zm-37.54 15.2h37.5v42.9h-37.5zm18.78-114.44a18.8 18.8 0 0 1 18.73 18.74v22.4h-37.5V74.12a18.8 18.8 0 0 1 18.78-18.74zM104.36 270.8v-42.9h37.5v42.9zm237.26-101.12c-5.3 0-8.2 2-8.6 6 .46 31.37-52.13 31-49.7-4.37v-58c-2-37.46 51-33.07 49.7-5.18 22.25 23.58 20.72-22.38 3.8-29.1-32.85-20.26-72.55-3.3-70.7 34.28v58c0 14.53 4.16 25.6 12.35 32.9 56.63 35.78 89.15-33.23 63.17-34.52zM276.86 49.12c-2.16-34.45-48.94-31.08-49.68 0 2.15 34.4 48.96 31 49.68 0zm-24.84 9.63c-12.26-.4-12.62-18.5 0-19.27 12.25.35 12.6 18.45 0 19.22z"/></svg>