<svg viewBox="0 0 1692 612"
  xmlns="http://www.w3.org/2000/svg">
  <path
    d="M55.8 132S143.3-1.6 304.3 2.5c3.3.1-160.2 278.2-160.2 278.2"
    fill="#74d14c" />
  <path
    d="M246.5 150.2L333.2 0s147.7 5 236 148.6"
    fill="#f2af58" />
  <path
    d="M470.2 334.3l84.2 146S474.3 609.2 311 610"
    fill="#d65ab1" />
  <path
    d="M46 466.4S117.7 596.8 281 611.7c4.2.4 86-145.3 86-145.3z"
    fill="#a45ec0" />
  <path
    d="M412.4 175l171 .8s68.5 131.3-11.6 275"
    fill="#ec4c4c" />
  <path
    d="M200.2 437.5l-170.8-.3s-71.8-134.2 9-282"
    fill="#4c96d7" />
  <path
    d="M275.4 387.6a124 124 0 0 1-37.1-12.5c-20.3-10-41.4-27.3-39.5-32.3s6.8-2.5 15.2 4.7c11 9.3 15.2 12.2 27.8 18.4 30.8 15.6 71.3 19.8 106.3 11 18.3-4.5 41-17 55.2-29.5 6.4-5.5 13.2-11.5 13.6-10 7 1.7-15.4 23-32.6 33-13.3 8-32.6 14-49 17.2a236 236 0 0 1-59.9-.3zm105-75.2C367.2 292.6 362 281 363 272s6-16.7 15.5-21.3c6.2-3 8.8-3.7 14.3-2.8 20.4 2.8 29 23 18.8 43.8-3.6 7.2-17.7 29.3-21 33-.6.6-5-5-10-12.4zm-170.8-58.8c.8-.4 9.4-3.3 14.2-3 10.6.4 18.3 5 22.4 13.4s3.8 13.3.3 22.6C244 293 225.5 323 224 323s-4-4.8-8-10.7c-10.3-15-17.6-30.7-17.6-38s6.5-18.4 11.3-20.7"
    fill="#5f4594" />
  <g fill="#fff">
    <circle
      cx="224.2"
      cy="276.5"
      r="14.9" />
    <circle
      cx="389.3"
      cy="274.9"
      r="15.7" />
  </g>
  <path
    d="M1066.7 391c-36.4-4.6-52.5-41.8-42-74.5 11-35 49.8-53 84.8-44 32 8.4 47.2 40.2 38.2 71.6-10 34.7-47 51-81 46.8zm38.4-22c29.5-22 6.7-104.2-39-77.2-31.3 18.5-4.5 108.7 39 77.2zm217 22c-36.4-4-53.7-41-44.3-74 10-35.3 50-52.6 84.2-44.3s50.3 42.3 38.6 75-46 47-78.5 43.4zm36.5-21.2c43.5-22.6-10.6-112.8-45-69.2-22.2 28.3 6 90.2 45 69.2zm-386 19.8c-30.7-9.5 13.5-126-40.2-85-11.2 8.6-25 25-28.5 39-3 12 5.2 24 2.6 35-3.2 13.7-13.7 16-26 9s-14.2-20-14-33.3c.4-28.2 8.5-53.2 5-81.6-1.8-14.4-13-52 6.6-58 51-15.2 24.4 98.5 28.3 94 14.8-17.3 8.2-10.7 36.4-31 17-12 44.4-10.2 52.5 12.2s-3 47-1.5 68.7c1.3 19.3 7.5 39-21 30.7zm245.2-.2c-46.6-7.8-32.8-65.2-30-98-8.6.2-24.5 6-25.6-6s21.5-11.6 26-18.3c7.3-11.4-8.6-31.5 12.2-34.5 24.2-3.5 21.5 29 20.3 42.7 11.5.2 47-8.5 42 9-5.4 19.2-29.7 1.5-39.7 5.8s-8.6 19.4-9 29.6c-.5 12-3.3 28.5 4 39 9.2 13.5 20.7 7.4 33.5 10.3 10 2.3 17.7 4.8 4.7 16.8-8.5 7.8-27.8 5-38 3.4zm230.5.3c-29.2-7.3-14.8-51.3-16-71.7-.5-10.6-8.3-29.4-1.5-39.2s19.6-10.3 27.4-3.3c15 13.6 3.4 46.2 3.5 63.6.1 49.6 41.2 15.2 50.8-12.7 5.7-16.5-10-73 28-51 18.2 10.5 10 52.2 10.2 71.7 0 12 2.8 57.4-23.5 45-8.2-4-13-44.3-10-44.3-6 0-17.4 21.7-22 26-12 11.5-30 20-47 16zM720.8 388c-20-6.3-14-29.3-12.4-44.8 2.6-25.7 4.6-52.4 1-78-2-14.7-10-26 2.8-35.4 9-6.7 30.4-5 41.3-5.3 27.4-1 70.2-.7 86 27 19 33-16.4 73-49 78.3-10.7 1.7-43 8.3-32.4-15.6 4.3-10 25.8-3.3 36.5-13.2 28-53-10-54.5-35.5-53.7-34.6-.8-18.4 59.5-16.3 83.2 2 21.5 16.3 69.7-22 57.7zm872.5-.3c-18.4-5-9.7-78-9-92.7.7-13 .7-26 16.6-24 22 3 16.5 29.6 15 43.8 11.5-18.7 42.2-59.7 68.5-38.4 8 6.5 10.5 15.8 4 24.5-8.7 11.7-18.7 6.2-28.3 2.6-6.5-2.4-1.7-8.5-13.7-5.4-5 1.2-10.6 10.4-13.2 14.2a82.1 82.1 0 0 0-14.3 39.1c-1.8 19 5.5 47.8-25.7 36.2z"
    fill="#3a3a3a" />
</svg>
