<svg xmlns="http://www.w3.org/2000/svg" viewBox="0 0 1692 612"><path fill="#74d14c" d="M56 132S143-2 304 3c4 0-160 278-160 278"/><path fill="#f2af58" d="M247 150L333 0s148 5 236 149"/><path fill="#d65ab1" d="M470 334l84 146s-80 129-243 130"/><path fill="#a45ec0" d="M46 466s72 131 235 146c4 0 86-146 86-146z"/><path fill="#ec4c4c" d="M412 175l171 1s69 131-11 275"/><path fill="#4c96d7" d="M200 438l-171-1s-71-134 9-282"/><path d="M275 388c-13-3-23-6-37-13-20-10-41-27-39-32s7-3 15 4c11 10 15 13 28 19 31 15 71 20 106 11 18-5 41-17 55-30 7-5 13-11 14-9 7 1-16 23-33 33a163 163 0 01-109 17zM380 312c-13-19-18-31-17-40s6-17 15-21c7-3 9-4 15-3 20 3 29 23 18 44-3 7-17 29-21 33l-10-13zM210 254c0-1 9-4 14-4 10 1 18 6 22 14s4 13 0 22c-2 7-20 37-22 37s-4-5-8-11c-10-15-18-30-18-38s7-18 12-20" fill="#5f4594"/><g fill="#fff"><circle cx="224.2" cy="276.5" r="14.9"/><circle cx="389.3" cy="274.9" r="15.7"/></g><path fill="#3a3a3a" d="M1067 391c-37-5-53-42-42-74 11-36 50-53 85-44 32 8 47 40 38 71-10 35-47 51-81 47zm38-22c30-22 7-104-39-77-31 18-4 109 39 77zm217 22c-36-4-53-41-44-74 10-35 50-53 84-44s50 42 39 75-46 47-79 43zm37-21c43-23-11-113-45-69-22 28 6 90 45 69zm-386 20c-31-10 13-126-40-85-12 8-26 25-29 39-3 12 5 23 3 35-4 13-14 16-26 9s-15-20-15-34c1-28 9-53 5-81-2-15-13-52 7-58 51-15 24 98 28 94 15-17 8-11 37-31 17-12 44-10 52 12s-3 47-1 69c1 19 7 39-21 31zm245-1c-47-7-33-65-30-97-9 0-25 5-26-6s22-12 26-19c7-11-8-31 12-34 25-4 22 29 21 43 11 0 47-9 42 9-6 19-30 1-40 5s-9 20-9 30c-1 12-3 28 4 39 9 13 21 7 33 10 10 3 18 5 5 17-8 8-28 5-38 3zm230 1c-29-8-14-52-16-72 0-11-8-29-1-39s20-10 27-3c15 13 4 46 4 63 0 50 41 15 51-13 5-16-10-72 28-51 18 11 10 53 10 72 0 12 3 58-24 45-8-4-13-44-10-44-6 0-17 22-22 26-12 11-30 20-47 16zm-727-2c-20-6-14-29-13-45 3-26 5-52 2-78-2-15-10-26 2-35 9-7 31-5 42-6 27-1 70 0 86 27 19 33-17 73-49 78-11 2-43 9-33-15 5-10 26-3 37-13 28-53-10-55-36-54-34-1-18 60-16 83 2 22 16 70-22 58zm872 0c-18-5-9-78-9-93 1-13 1-26 17-24 22 3 17 30 15 44 12-19 42-60 69-39 8 7 10 16 4 25-9 12-19 6-29 3-6-3-1-9-13-6-5 1-11 11-14 14a82 82 0 00-14 39c-2 19 6 48-26 37z"/></svg>