<svg xmlns="http://www.w3.org/2000/svg" viewBox="0 0 1196 1004"><path fill="#74d14c" d="M297 160S403-2 598 3c4 0-194 337-194 337"/><path fill="#f2af58" d="M528 182L633 0s179 6 286 180"/><path fill="#d65ab1" d="M799 405l102 177s-97 156-295 157"/><path fill="#a45ec0" d="M285 565s87 158 285 176c5 1 104-176 104-176z"/><path fill="#ec4c4c" d="M729 212l207 1s83 159-14 333"/><path fill="#4c96d7" d="M472 530H265s-87-163 11-342"/><path d="M563 470c-16-3-28-7-45-16-25-12-51-33-48-39s8-3 18 6c13 11 19 15 34 22 37 19 86 24 129 14 22-6 50-21 67-36 7-7 16-14 16-12 9 2-19 28-39 40-17 10-40 17-60 21-15 3-53 3-72 0zm127-91c-16-24-22-39-21-49s7-21 18-26c8-4 11-5 18-4 24 4 35 28 22 53-4 9-21 36-25 40-1 1-6-6-12-14zm-207-72c1 0 11-4 17-4 13 1 22 7 27 17s5 16 1 27c-3 8-26 44-28 44l-9-13c-13-18-22-37-22-46s8-22 14-25" fill="#5f4594"/><g fill="#fff"><circle cx="500.6" cy="335" r="18"/><circle cx="700.6" cy="333" r="19"/></g><path fill="#3a3a3a" d="M438 1000c-44-5-64-50-51-90 14-42 60-64 103-53 39 10 57 49 46 87-12 42-57 62-98 56zm46-26c36-27 9-126-47-94-38 23-5 132 47 94zm263 26c-44-4-65-49-53-89 12-43 60-64 102-54s61 51 47 91-56 57-96 52zm45-25c52-28-13-137-55-84-27 34 7 109 55 84zm-468 24c-37-12 16-153-49-103-13 10-30 30-34 47-4 15 6 29 3 43-4 16-17 19-32 10s-17-24-17-40c1-34 11-64 6-99-2-17-15-63 8-70 62-18 30 119 34 114 18-21 10-13 45-37 20-15 53-13 63 14 9 26-3 57-2 84 2 23 9 47-25 37zm297-1c-56-9-40-78-36-118-11 0-30 7-31-7-2-16 26-14 31-23 9-13-10-38 15-41 29-5 26 35 24 51 14 1 57-10 51 11-6 24-36 2-48 7s-10 24-11 36c0 15-4 35 5 48 11 16 25 9 41 12 12 3 21 6 5 20-10 10-33 6-46 5zm279 1c-35-9-18-62-19-87-1-13-10-36-2-48s24-12 33-4c19 17 4 56 5 77 0 61 49 19 61-15 7-20-12-88 34-62 22 13 12 64 12 87 0 15 4 70-28 55-10-5-16-54-12-54-7 0-21 26-27 31-14 14-36 25-57 20zm-881-2c-24-8-17-36-15-55 3-31 5-63 1-94-2-18-12-32 4-43 11-8 36-6 50-7 33-1 85 0 104 33 23 40-20 88-60 95-13 2-52 10-39-19 5-12 31-4 44-16 34-64-12-66-43-65-42-1-22 72-19 101 2 26 19 84-27 70zm1057-1c-22-6-12-94-11-112 1-16 1-32 20-29 27 4 20 36 18 53 14-23 52-72 83-46 10 7 13 19 5 29-10 14-23 8-34 3-8-2-2-10-17-6-6 1-13 12-16 17a100 100 0 00-17 48c-2 23 7 57-31 43z"/></svg>