<svg xmlns="http://www.w3.org/2000/svg" viewBox="0 0 740 741"><defs/><defs><style>.g{fill:#5f4594}.h{fill:#fff}</style></defs><path fill="#74d14c" d="M68 160S174-2 369 3c4 0-194 337-194 337"/><path fill="#f2af58" d="M299 182L404 0s179 6 286 180"/><path fill="#d65ab1" d="M570 405l102 177s-97 156-295 157"/><path fill="#a45ec0" d="M56 565s87 158 285 176c5 1 104-176 104-176z"/><path fill="#ec4c4c" d="M500 212l207 1s83 159-14 333"/><path fill="#4c96d7" d="M243 530H36s-87-163 11-342"/><path d="M334 470c-16-3-28-7-45-16-25-12-50-33-48-39s8-3 18 6c14 11 19 15 34 22 37 19 86 24 129 14 22-6 50-21 67-36 7-7 16-14 16-12 9 2-19 28-39 40-17 10-40 17-60 21-15 3-53 3-72 0zM461 379c-16-24-22-39-21-49s7-21 18-26c8-4 11-5 18-4 24 4 35 28 22 53-4 9-21 36-25 40-1 1-6-6-12-14zM254 307c1 0 11-4 17-4 13 1 22 7 27 17s5 16 1 27c-3 8-26 44-28 44l-9-13c-13-18-22-37-22-46s8-22 14-25" class="g"/><circle cx="271.6" cy="335" r="18" class="h"/><circle cx="471.6" cy="333" r="19" class="h"/></svg>