<svg xmlns="http://www.w3.org/2000/svg" viewBox="0 0 1196 219"><path fill="#3a3a3a" d="M438 215c-44-6-64-51-51-90 14-43 60-64 103-53 39 10 57 48 46 86-12 42-57 62-98 57zm46-26c36-27 8-127-47-94-38 22-5 132 47 94zm263 26c-44-5-65-49-53-90 12-42 60-63 102-53s61 51 46 90-55 58-95 53zm45-26c52-27-13-136-55-83-27 34 7 109 55 83zm-468 24c-37-11 16-152-49-102-13 10-30 30-34 47-4 14 6 29 3 42-4 17-17 20-32 11s-17-24-17-40c1-34 11-65 6-99-2-18-15-63 8-70 62-19 30 119 34 114 18-21 10-13 45-38 20-15 53-12 63 15 9 25-3 57-2 83 2 23 9 47-25 37zm297 0c-56-9-40-79-36-118-11 0-30 7-31-8-2-15 26-14 31-22 9-14-10-38 15-42 29-4 26 36 24 52 14 0 57-10 51 11-6 23-36 2-48 7s-10 24-11 36c0 14-4 35 5 47 11 17 25 9 40 13 13 2 22 5 6 20-10 9-33 6-46 4zm279 1c-35-9-18-63-19-87-1-13-10-36-2-48s24-12 33-4c19 17 4 56 4 77 1 60 50 19 62-15 7-20-12-88 34-62 22 13 12 63 12 87 0 14 4 69-28 54-10-4-16-53-12-53-7 0-21 26-27 31-14 14-36 24-57 20zm-881-3c-24-7-17-35-15-54 3-31 5-63 1-95C3 45-7 31 9 20c11-9 36-6 50-7 33-1 85-1 104 33 23 40-20 88-60 95-13 2-52 10-39-19 5-12 31-4 44-16 34-64-12-66-43-65-42-1-22 72-19 100 2 27 19 85-27 70zm1057 0c-23-6-12-94-11-112 1-16 1-32 20-29 27 3 20 36 18 53 14-23 51-73 83-47 10 8 13 19 5 30-10 14-23 7-34 3-8-3-2-10-17-6-6 1-13 12-16 17a100 100 0 00-17 47c-2 23 7 58-31 44z"/></svg>